<svg viewBox="0 0 36 36" fill="currentColor" width="32" height="32"  xmlns="http://www.w3.org/2000/svg" style="color: var(--primary-icon);"><path d="M18.425 8.455C19.365 7.49 21 8.155 21 9.5V26.5c0 1.346-1.636 2.01-2.575 1.046l-3.983-4.091A1.5 1.5 0 0 0 13.367 23H10a2 2 0 0 1-2-2v-6a2 2 0 0 1 2-2h3.367a1.5 1.5 0 0 0 1.075-.454l3.983-4.091zM24.25 14.008c-.394-.567-.405-1.353.083-1.842.488-.488 1.287-.492 1.707.056A9.459 9.459 0 0 1 28 18c0 2.174-.731 4.177-1.96 5.779-.42.547-1.219.543-1.707.055-.488-.488-.477-1.275-.083-1.842A6.968 6.968 0 0 0 25.5 18c0-1.484-.462-2.86-1.25-3.992z"></path>
</svg>