<svg aria-label="Favorited" 
xmlns="http://www.w3.org/2000/svg"
 fill="currentColor" height="20" role="img" viewBox="0 0 24 24" width="20"
 ><title>Favorited</title><path d="M18.18 22.51a.99.99 0 0 1-.513-.142L12 18.975l-5.667 3.393a1 1 0 0 1-1.492-1.062l1.37-6.544-4.876-4.347a.999.999 0 0 1 .536-1.737l6.554-.855 2.668-5.755a1 1 0 0 1 1.814 0l2.668 5.755 6.554.855a.999.999 0 0 1 .536 1.737l-4.876 4.347 1.37 6.544a1 1 0 0 1-.978 1.205ZM12 16.81a1 1 0 0 1 .514.142l4.22 2.528-1.021-4.873a.998.998 0 0 1 .313-.952l3.676-3.276-4.932-.644a1 1 0 0 1-.778-.57L12 4.867l-1.992 4.297a1 1 0 0 1-.779.57l-4.931.644 3.676 3.276a.998.998 0 0 1 .313.951l-1.02 4.873 4.22-2.527A1 1 0 0 1 12 16.81Z"></path></svg>